<?xml version="1.0" encoding="iso-8859-1"?>
<!-- Generator: Adobe Illustrator 19.0.0, SVG Export Plug-In . SVG Version: 6.00 Build 0)  -->
<svg xmlns="http://www.w3.org/2000/svg" xmlns:xlink="http://www.w3.org/1999/xlink" version="1.1" id="Capa_1" x="0px" y="0px" viewBox="0 0 512.001 512.001" style="enable-background:new 0 0 512.001 512.001;" xml:space="preserve" width="512px" height="512px">
<g>
	<g>
		<path d="M302.763,160.35c-1.86-1.86-4.439-2.93-7.07-2.93c-2.64,0-5.21,1.07-7.069,2.93c-1.86,1.86-2.931,4.43-2.931,7.07    c0,2.63,1.07,5.21,2.931,7.07c1.859,1.86,4.439,2.93,7.069,2.93c2.631,0,5.21-1.07,7.07-2.93c1.86-1.86,2.93-4.44,2.93-7.07    S304.625,162.21,302.763,160.35z" fill="#de647a"/>
	</g>
</g>
<g>
	<g>
		<path d="M511.143,310l-93.46-238.19C410.578,53.701,393.417,42,373.961,42h-5.902L339.266,3.964    C337.377,1.467,334.425,0,331.294,0H175.867c-3.38,0-6.531,1.708-8.377,4.539L143.068,42h-5.029    c-19.454,0-36.615,11.701-43.721,29.811L0.858,310c-1.979,5.041,0.415,10.741,5.399,12.857l82.248,34.928    c1.249,0.53,2.579,0.795,3.909,0.795c1.325,0,2.649-0.263,3.895-0.79c2.495-1.055,4.455-3.077,5.432-5.603l37.04-95.758    l6.117,43.779l-49.781,199.37c-0.746,2.987-0.074,6.151,1.821,8.578c1.895,2.426,4.802,3.845,7.881,3.845h302.107    c3.079,0,5.986-1.418,7.881-3.845c1.896-2.426,2.567-5.591,1.821-8.578l-49.781-199.372l6.212-44.802l37.192,96.765    c0.973,2.531,2.933,4.559,5.43,5.618c1.247,0.529,2.576,0.794,3.904,0.794c1.33,0,2.66-0.265,3.909-0.795l82.248-34.928    C510.727,320.741,513.121,315.042,511.143,310z M313.896,20l-12.84,21.856h-52.72c-5.522,0-10,4.477-10,10c0,5.523,4.478,10,10,10    h40.97l-30.374,51.701L194.765,20H313.896z M176.034,28.053l71.708,104.552l-14.099,23.999l-73.008-104.93L176.034,28.053z     M139.691,190.674c-5.47,0.764-9.284,5.818-8.52,11.288l1.92,13.744L86.815,335.339l-63.786-27.088l9.717-24.765l38.158,17.143    c1.33,0.598,2.722,0.881,4.092,0.881c3.816,0,7.462-2.197,9.128-5.904c2.263-5.038,0.014-10.957-5.024-13.22l-39.04-17.539    l72.875-185.731C117.016,68.718,126.87,62,138.039,62h5.416l79.035,113.591l-60.436,102.873l-11.076-79.27    C150.214,193.724,145.152,189.913,139.691,190.674z M292.617,310.75h56.249l5.556,22.25h-61.805    c0.139-1.023,0.217-2.065,0.217-3.125v-16C292.833,312.815,292.755,311.773,292.617,310.75z M272.833,329.875    c0,1.723-1.402,3.125-3.125,3.125h-22.004h-4.246c-1.723,0-3.125-1.402-3.125-3.125v-16c0-1.723,1.402-3.125,3.125-3.125h26.25    c1.723,0,3.125,1.402,3.125,3.125V329.875z M284.772,353l36.219,61.453l-14.073,9.706l-37.154-63.322    c-0.002-0.004-0.004-0.008-0.007-0.011L265.167,353h4.543H284.772z M241.979,353l7.687,13.102l-26.476,45.856l-19.229-11.102    L231.591,353H241.979z M220.552,333h-63.226l5.555-22.25h54.896h0.058h2.717c-0.139,1.023-0.217,2.065-0.217,3.125v16    C220.334,330.935,220.412,331.977,220.552,333z M394.124,492h-276.5l4.994-20h58.752c5.522,0,10-4.477,10-10s-4.478-10-10-10    H127.61l24.72-99h56.166l-26.856,46.517c-2.762,4.783-1.123,10.899,3.66,13.66l36.549,21.102c1.575,0.909,3.294,1.342,4.99,1.341    c3.456,0,6.817-1.793,8.67-5.001l25.795-44.678l33.807,57.62c1.406,2.397,3.747,4.101,6.46,4.702    c0.717,0.159,1.442,0.237,2.165,0.237c2.011,0,3.994-0.607,5.678-1.768l30.598-21.102c4.319-2.979,5.602-8.789,2.938-13.31    L307.987,353h51.429L394.124,492z M425.206,335.33L378.74,214.438l2.958-21.328c0.759-5.471-3.062-10.52-8.532-11.279    c-5.468-0.758-10.52,3.061-11.278,8.532l-13.92,100.388h-78.259h-26.25h-8.206L284,207.269c2.785-4.769,1.176-10.893-3.593-13.678    c-4.773-2.786-10.895-1.175-13.679,3.593l-54.617,93.533l-33.945-0.197l64.423-109.66c0.143-0.207,0.294-0.407,0.422-0.625    l24.638-42.031L332.385,28.01l18.703,24.707l-45.049,77.147c-2.785,4.769-1.176,10.893,3.593,13.678    c1.586,0.926,3.321,1.366,5.033,1.366c3.439,0,6.786-1.775,8.646-4.959L368.828,62h5.133c11.17,0,21.023,6.718,25.104,17.116    l72.875,185.731l-39.04,17.539c-5.038,2.263-7.287,8.182-5.024,13.22c1.666,3.707,5.311,5.904,9.128,5.904    c1.37,0,2.762-0.283,4.092-0.881l38.158-17.143l9.717,24.765L425.206,335.33z" fill="#de647a"/>
	</g>
</g>
<g>
	<g>
		<path d="M227.693,454.93c-1.86-1.86-4.44-2.93-7.069-2.93c-2.63,0-5.21,1.07-7.07,2.93c-1.86,1.86-2.93,4.44-2.93,7.07    s1.069,5.21,2.93,7.07c1.861,1.86,4.44,2.93,7.07,2.93s5.21-1.07,7.069-2.93c1.86-1.86,2.931-4.44,2.931-7.07    S229.555,456.79,227.693,454.93z" fill="#de647a"/>
	</g>
</g>
<g>
</g>
<g>
</g>
<g>
</g>
<g>
</g>
<g>
</g>
<g>
</g>
<g>
</g>
<g>
</g>
<g>
</g>
<g>
</g>
<g>
</g>
<g>
</g>
<g>
</g>
<g>
</g>
<g>
</g>
</svg>
