<?xml version="1.0" encoding="iso-8859-1"?>
<!-- Generator: Adobe Illustrator 19.0.0, SVG Export Plug-In . SVG Version: 6.00 Build 0)  -->
<svg xmlns="http://www.w3.org/2000/svg" xmlns:xlink="http://www.w3.org/1999/xlink" version="1.1" id="Capa_1" x="0px" y="0px" viewBox="0 0 496.047 496.047" style="enable-background:new 0 0 496.047 496.047;" xml:space="preserve" width="512px" height="512px">
<g>
	<g>
		<g>
			<path d="M482.072,155.997c13.888-24.056,17.576-52.08,10.384-78.904c-7.184-26.832-24.392-49.248-48.448-63.144     C394.344-14.715,330.616,2.357,301.944,52.013c-13.888,24.056-17.576,52.08-10.384,78.904c0.464,1.736,1.088,3.392,1.632,5.088     h-34.336c-24.536,0-47.616,10.816-63.328,29.664c-12.592,15.12-19.528,34.28-19.528,53.96c0,3.248,0.256,6.48,0.624,9.688     L96,148.693l-16,16l-8.4-8.4c-7.92-7.928-18.448-12.288-29.664-12.288C18.816,144.005,0,162.821,0,185.949     c0,11.192,4.36,21.728,12.28,29.656l8.408,8.4l-8,8L133.72,353.037l-24.352,31.648l35.496,35.496L160,400.005v96h112v-105.16     c13.768-3.616,24-16.048,24-30.936v-3.368l24-14.4v15.76c0,14.4,11.712,26.112,26.112,26.112c5.544,0,10.856-1.728,15.36-4.992     l89.448-65.056l-2.968-4.456l20.952-16.76c7.048-5.656,11.096-14.088,11.096-23.136c0-16.328-13.28-29.608-29.608-29.608H447.2     c-6.368,0-12.68,2.104-17.768,5.928l-15.912,11.936l-3.304-4.96L392,265.061v-57.096     C427.912,207.901,462.856,189.269,482.072,155.997z M392.16,16.045c14.92-0.008,30.024,3.784,43.848,11.768     C456.36,39.565,470.92,58.533,477,81.237c3.96,14.768,3.952,29.952,0.28,44.368l-48.408-27.952l-5.576-46.336l-42.912,18.336     l-49.712-28.696C347.264,24.829,369.48,16.045,392.16,16.045z M191.064,278.493l-7.312,9.512H136v-16h52.904L191.064,278.493z      M23.6,204.293c-4.904-4.904-7.6-11.424-7.6-18.344c0-14.304,11.632-25.944,25.936-25.944c6.936,0,13.448,2.696,18.344,7.6     l8.408,8.4L32,212.693L23.6,204.293z M35.312,232.005L96,171.317l84.688,84.688H120v48h51.44l-27.88,36.248L35.312,232.005z      M143.136,395.829l-12.504-12.504l61-79.32H192v-0.48l5.168-6.72l6.224,18.672L143.136,395.829z M255.992,480.005H176V378.669     l33.544-44.736l1.488,4.472l7.512-2.816l15.84,36.952c3.992,9.328,12.072,15.984,21.608,18.4V480.005z M280,359.901     c0,8.88-7.224,16.104-16.104,16.104c-6.456,0-12.264-3.832-14.808-9.76l-15.552-36.272l34.384-12.896l11.248,33.752     c0.56,1.64,0.832,3.344,0.832,5.088V359.901z M439.04,258.725c2.336-1.752,5.232-2.72,8.16-2.72h3.184     c7.512,0,13.616,6.104,13.616,13.608c0,4.168-1.856,8.04-5.112,10.632l-19.856,15.888l-16.624-24.936L439.04,258.725z      M405.776,275.101l23.304,34.952l-77.016,56.016c-1.744,1.264-3.808,1.936-5.952,1.936c-5.584,0-10.112-4.528-10.112-10.112     v-69.888h-16v35.472l-27.568,16.536l-9.52-28.56l6.808-2.552l-7.072-24.76l14.232-6.096l-6.296-14.704l-12.36,5.296     l-22.52-78.832l-15.392,4.4l29.976,104.904l-48.152,18.056l0.264-0.36l-2.272-1.704l-24.624-73.88     c-2.328-6.976-3.504-14.24-3.504-21.592c0-15.944,5.616-31.472,15.832-43.72c12.656-15.192,31.256-23.904,51.024-23.904H296     v92.312l80-35.552v17.976l-69.816,29.92l6.296,14.704L376,244.133v31.592l-20.44,13.624l8.872,13.312L405.776,275.101z      M312,219.693v-49.36c7.776,9.376,17.152,17.456,28.016,23.728c4.656,2.688,9.448,4.928,14.312,6.824L312,219.693z      M348.016,180.197c-20.36-11.752-34.912-30.72-41-53.424c-6.088-22.696-2.96-46.408,8.792-66.76     c1.344-2.328,2.912-4.44,4.432-6.6l59.056,34.096l30.664-13.096l3.984,33.096l57.896,33.432     c-1.112,2.392-2.296,4.752-3.632,7.056C443.952,190.021,390.016,204.461,348.016,180.197z" fill="#de647a"/>
			<rect x="418.169" y="134.308" transform="matrix(0.8661 0.4999 -0.4999 0.8661 128.2085 -193.9821)" width="16" height="16" fill="#de647a"/>
			<rect x="335.052" y="86.289" transform="matrix(0.8661 0.4999 -0.4999 0.8661 93.073 -158.8622)" width="16" height="16" fill="#de647a"/>
			<path d="M400.336,155.077l-13.856-8c-2.136,3.704-5.584,6.352-9.712,7.456c-4.168,1.096-8.44,0.536-12.144-1.6     c-7.64-4.408-10.272-14.216-5.856-21.856l-13.864-8c-8.824,15.288-3.56,34.896,11.72,43.712c4.928,2.848,10.4,4.304,15.944,4.304     c2.784,0,5.576-0.368,8.336-1.104C389.16,167.781,396.064,162.485,400.336,155.077z" fill="#de647a"/>
		</g>
	</g>
</g>
<g>
</g>
<g>
</g>
<g>
</g>
<g>
</g>
<g>
</g>
<g>
</g>
<g>
</g>
<g>
</g>
<g>
</g>
<g>
</g>
<g>
</g>
<g>
</g>
<g>
</g>
<g>
</g>
<g>
</g>
</svg>
